# xmcd CD database file
#
# Track frame offsets:
#	150
#	24782
#	43477
#	57950
#	71960
#	92010
#	111355
#	123345
#	138827
#	160197
#	173707
#	186675
#	209087
#
# Disc length: 3340 seconds
#
# Revision: 0
# Processed by: cddbd v1.5.2PL0 Copyright (c) Steve Scherf et al.
# Submitted via: CDex 1.85
#
DISCID=c40d0a0d
DTITLE=Various Artist - Swing Era
DYEAR=1900
DGENRE=Jazz
TTITLE0=Tommy e Jimmie Dorsey orchestra: Brotherly jump
TTITLE1=Billie Holiday and All star jam band: I love my man
TTITLE2=King Cole trio: Sweet Lorraine
TTITLE3=Fats Waller and his Rhythm: Oh Francy
TTITLE4=Eddie Condon's jazz band, Hot lips Page: Uncle Sam blues
TTITLE5=Red Norvo orchestra: Seven come eleven
TTITLE6=Frank Sinatra, Axel Strordahl orch: Falling in love
TTITLE7=Coleman Hawkins orchestra: Get happy
TTITLE8=Yank Lawson, V-Disc all stars: Davenport blues
TTITLE9=Big Bill Bronzy: Tell me baby
TTITLE10=Benny Goodman sextet: Three little words
TTITLE11=Woody Herman, V-Disc all stars: Somebody loves me
TTITLE12=Lionel Hampton orchestra: Flyin' home
EXTD=
EXTT0=
EXTT1=
EXTT2=
EXTT3=
EXTT4=
EXTT5=
EXTT6=
EXTT7=
EXTT8=
EXTT9=
EXTT10=
EXTT11=
EXTT12=
PLAYORDER=
